# xmcd CD database file
#
# Track frame offsets:
#	150
#	19670
#	35355
#	69480
#	98414
#	122584
#	144064
#	165729
#	183962
#	199570
#
# Disc length: 2804 seconds
#
# Revision: 0
# Processed by: cddbd v1.4PL0 Copyright (c) Steve Scherf et al.
# Submitted via: CDex 1.50Beta7
#
DISCID=720af20a
DTITLE=Djangos Cadillac - Tunes 4 You
DYEAR=2003
DGENRE=Jazz
TTITLE0=Dog Mountain
TTITLE1=Metolius
TTITLE2=Bossa de Lano
TTITLE3=Minor Swing
TTITLE4=Angel Eyes
TTITLE5=A Smooth One
TTITLE6=Y Knot
TTITLE7=What Makes Bob Holler
TTITLE8=Sammy's Freilich
TTITLE9=Djangos Cadillac
EXTD=YEAR: 2003
EXTT0=
EXTT1=
EXTT2=
EXTT3=
EXTT4=
EXTT5=
EXTT6=
EXTT7=
EXTT8=
EXTT9=
PLAYORDER=
